<mxfile host="app.diagrams.net" agent="Mozilla/5.0 (Windows NT 10.0; Win64; x64) AppleWebKit/537.36 (KHTML, like Gecko) Chrome/133.0.0.0 Safari/537.36" version="26.0.16">
  <diagram name="Página-1" id="YOUnx-ueqEBV6m3_fXeS">
    <mxGraphModel dx="880" dy="468" grid="1" gridSize="10" guides="1" tooltips="1" connect="1" arrows="1" fold="1" page="1" pageScale="1" pageWidth="827" pageHeight="1169" math="0" shadow="0">
      <root>
        <mxCell id="0" />
        <mxCell id="1" parent="0" />
        <mxCell id="II9RBnAETLJKAHiIoGPW-9" style="edgeStyle=orthogonalEdgeStyle;rounded=0;orthogonalLoop=1;jettySize=auto;html=1;exitX=0.5;exitY=0.5;exitDx=0;exitDy=0;exitPerimeter=0;entryX=0;entryY=0.5;entryDx=0;entryDy=0;" parent="1" source="II9RBnAETLJKAHiIoGPW-1" target="II9RBnAETLJKAHiIoGPW-10" edge="1">
          <mxGeometry relative="1" as="geometry">
            <mxPoint x="260" y="170" as="targetPoint" />
          </mxGeometry>
        </mxCell>
        <mxCell id="II9RBnAETLJKAHiIoGPW-1" value="Usuario" style="shape=umlActor;verticalLabelPosition=bottom;verticalAlign=top;html=1;outlineConnect=0;" parent="1" vertex="1">
          <mxGeometry x="90" y="140" width="30" height="60" as="geometry" />
        </mxCell>
        <mxCell id="II9RBnAETLJKAHiIoGPW-8" value="Sistema" style="swimlane;whiteSpace=wrap;html=1;" parent="1" vertex="1">
          <mxGeometry x="180" y="60" width="520" height="400" as="geometry" />
        </mxCell>
        <mxCell id="II9RBnAETLJKAHiIoGPW-16" style="edgeStyle=orthogonalEdgeStyle;rounded=0;orthogonalLoop=1;jettySize=auto;html=1;exitX=0.5;exitY=1;exitDx=0;exitDy=0;entryX=0.5;entryY=0;entryDx=0;entryDy=0;" parent="II9RBnAETLJKAHiIoGPW-8" source="II9RBnAETLJKAHiIoGPW-10" target="II9RBnAETLJKAHiIoGPW-12" edge="1">
          <mxGeometry relative="1" as="geometry" />
        </mxCell>
        <mxCell id="II9RBnAETLJKAHiIoGPW-10" value="Menu" style="ellipse;whiteSpace=wrap;html=1;" parent="II9RBnAETLJKAHiIoGPW-8" vertex="1">
          <mxGeometry x="119" y="80" width="120" height="60" as="geometry" />
        </mxCell>
        <mxCell id="II9RBnAETLJKAHiIoGPW-12" value="Tela Principal" style="swimlane;whiteSpace=wrap;html=1;" parent="II9RBnAETLJKAHiIoGPW-8" vertex="1">
          <mxGeometry x="24" y="170" width="310" height="210" as="geometry" />
        </mxCell>
        <mxCell id="7D81lHgPG3ZQvlLKOynB-2" value="- Escolhe um elementos de pokemon disponíveis.&amp;nbsp;" style="text;html=1;align=center;verticalAlign=middle;resizable=0;points=[];autosize=1;strokeColor=none;fillColor=none;" vertex="1" parent="II9RBnAETLJKAHiIoGPW-12">
          <mxGeometry y="60" width="290" height="30" as="geometry" />
        </mxCell>
        <mxCell id="7D81lHgPG3ZQvlLKOynB-3" value="- Com base no elemento recebe as desvantagens&lt;br&gt;e Vantagens." style="text;html=1;align=center;verticalAlign=middle;resizable=0;points=[];autosize=1;strokeColor=none;fillColor=none;" vertex="1" parent="II9RBnAETLJKAHiIoGPW-12">
          <mxGeometry y="110" width="290" height="40" as="geometry" />
        </mxCell>
        <mxCell id="7D81lHgPG3ZQvlLKOynB-1" value="Sair" style="ellipse;whiteSpace=wrap;html=1;" vertex="1" parent="1">
          <mxGeometry x="740" y="150" width="60" height="40" as="geometry" />
        </mxCell>
        <mxCell id="II9RBnAETLJKAHiIoGPW-15" style="edgeStyle=orthogonalEdgeStyle;rounded=0;orthogonalLoop=1;jettySize=auto;html=1;exitX=1;exitY=0.5;exitDx=0;exitDy=0;entryX=0;entryY=0.5;entryDx=0;entryDy=0;" parent="1" source="II9RBnAETLJKAHiIoGPW-10" edge="1" target="7D81lHgPG3ZQvlLKOynB-1">
          <mxGeometry relative="1" as="geometry">
            <mxPoint x="530" y="170" as="targetPoint" />
          </mxGeometry>
        </mxCell>
        <mxCell id="7D81lHgPG3ZQvlLKOynB-14" style="edgeStyle=orthogonalEdgeStyle;rounded=0;orthogonalLoop=1;jettySize=auto;html=1;exitX=0;exitY=0.75;exitDx=0;exitDy=0;entryX=1;entryY=0.75;entryDx=0;entryDy=0;" edge="1" parent="1" source="7D81lHgPG3ZQvlLKOynB-5" target="II9RBnAETLJKAHiIoGPW-12">
          <mxGeometry relative="1" as="geometry" />
        </mxCell>
        <mxCell id="7D81lHgPG3ZQvlLKOynB-5" value="Tela de Interação" style="swimlane;whiteSpace=wrap;html=1;" vertex="1" parent="1">
          <mxGeometry x="550" y="230" width="130" height="210" as="geometry" />
        </mxCell>
        <mxCell id="7D81lHgPG3ZQvlLKOynB-10" value="- Exibe as principais&lt;br&gt;&amp;nbsp;informações de cada &lt;br&gt;elemento do&lt;br&gt;&amp;nbsp;universo de pokemon" style="text;html=1;align=center;verticalAlign=middle;resizable=0;points=[];autosize=1;strokeColor=none;fillColor=none;" vertex="1" parent="7D81lHgPG3ZQvlLKOynB-5">
          <mxGeometry x="-10" y="70" width="140" height="70" as="geometry" />
        </mxCell>
        <mxCell id="7D81lHgPG3ZQvlLKOynB-15" style="edgeStyle=orthogonalEdgeStyle;rounded=0;orthogonalLoop=1;jettySize=auto;html=1;exitX=1;exitY=0.25;exitDx=0;exitDy=0;entryX=0;entryY=0.25;entryDx=0;entryDy=0;" edge="1" parent="1" source="II9RBnAETLJKAHiIoGPW-12" target="7D81lHgPG3ZQvlLKOynB-5">
          <mxGeometry relative="1" as="geometry" />
        </mxCell>
      </root>
    </mxGraphModel>
  </diagram>
</mxfile>
